# xmcd
# Copyright (C) 1995-1998 Ti Kan
#
# Track frame offsets:
#       150
#       32302
#       55246
#       89049
#       118728
#       148051
#       173477
#       201289
#       224613
#       251114
#       279561
#       299209
#       325344
#
# Disc length: 4648 seconds
#
# Revision: 0
# Processed by: cddbd v1.5.2PL0 Copyright (c) Steve Scherf et al.
# Submitted via: CD-Transfer v1.0
#
DISCID=d712260d
DTITLE=Clubbing 182 - 
DYEAR=1900
DGENRE=
TTITLE0=My Woman (Wolf Mix)
TTITLE1=Fall Once Agan (Original Mix)
TTITLE2=Dopamine Machine (Club Mix)
TTITLE3=El Sueno (Original Mix)
TTITLE4=Bring It Back (Original Mix)
TTITLE5=Botoque (Original Mix)
TTITLE6=Aguardiente (Jude and Frank Remix)
TTITLE7=La La La La Ley (Original Mix)
TTITLE8=Waves (Original Mix)
TTITLE9=House Music, I Love It (Original Mix)
TTITLE10=The Bomb 2k17 (Original Mix)
TTITLE11=Waterman (2018 Mix)
TTITLE12=Like An Egyptian (Original Mix)
EXTD=
EXTT0=
EXTT1=
EXTT2=
EXTT3=
EXTT4=
EXTT5=
EXTT6=
EXTT7=
EXTT8=
EXTT9=
EXTT10=
EXTT11=
EXTT12=
PLAYORDER=
